<svg xmlns="http://www.w3.org/2000/svg" viewBox="0 0 64 64" role="img" aria-label="עיריות ורשויות">
  
  <path
    d="M12 10 H52 V30 C52 40 46 48 32 54 C18 48 12 40 12 30 Z"
    fill="#1d4ed8"
    stroke="#ffffff"
    stroke-width="3"
    stroke-linejoin="round"
  />

  <path d="M15 13 H49 V28 H15 Z" fill="#38bdf8" />

  <circle cx="21" cy="19" r="3.5" fill="#facc15" />
  <g stroke="#facc15" stroke-width="1.5" stroke-linecap="round">
    <line x1="21" y1="13" x2="21" y2="11.5" />
    <line x1="21" y1="25" x2="21" y2="26.5" />
    <line x1="15" y1="19" x2="13.5" y2="19" />
    <line x1="27" y1="19" x2="28.5" y2="19" />
    <line x1="17" y1="15" x2="16" y2="14" />
    <line x1="25" y1="23" x2="26" y2="24" />
  </g>

  <path
    d="M15 28 Q21 32 27 28 T39 28 T51 28 V34 H15 Z"
    fill="#0ea5e9"
  />

  <rect x="26" y="24" width="12" height="16" fill="#f8fafc" stroke="#0f172a" stroke-width="1.5" />
  <rect x="29" y="27" width="2.5" height="3" fill="#94a3b8" />
  <rect x="32.5" y="27" width="2.5" height="3" fill="#94a3b8" />
  <rect x="29" y="31.5" width="2.5" height="3" fill="#94a3b8" />
  <rect x="32.5" y="31.5" width="2.5" height="3" fill="#94a3b8" />
  <path d="M30.5 35 H33.5 V40 H30.5 Z" fill="#64748b" />

  <rect x="18" y="28" width="6" height="10" fill="#e2e8f0" stroke="#0f172a" stroke-width="1" />
  <line x1="19" y1="31" x2="23" y2="31" stroke="#94a3b8" stroke-width="1" />
  <line x1="19" y1="34" x2="23" y2="34" stroke="#94a3b8" stroke-width="1" />

  <rect x="40" y="27" width="6" height="11" fill="#e2e8f0" stroke="#0f172a" stroke-width="1" />
  <line x1="41" y1="30" x2="45" y2="30" stroke="#94a3b8" stroke-width="1" />
  <line x1="41" y1="33" x2="45" y2="33" stroke="#94a3b8" stroke-width="1" />

</svg>